<svg width="46" height="46" viewBox="0 0 46 46" fill="none" xmlns="http://www.w3.org/2000/svg">
<path d="M21.5625 43.125V32.3323C18.9194 32.1368 16.6204 31.1794 14.6654 29.4601C12.7104 27.7409 11.4856 25.577 10.9911 22.9684C7.94937 22.61 5.35708 21.3632 3.21425 19.228C1.07142 17.0928 0 14.5168 0 11.5V10.3931C0 9.11662 0.455208 8.02412 1.36562 7.11562C2.27604 6.20712 3.36854 5.75192 4.64312 5.75H10.5052V4.64312C10.5052 3.36662 10.9595 2.27412 11.868 1.36562C12.7784 0.455208 13.8728 0 15.1513 0H30.8545C32.131 0 33.2235 0.455208 34.132 1.36562C35.0424 2.27412 35.4976 3.36662 35.4976 4.64312V5.75H41.3597C42.6362 5.75 43.7287 6.20521 44.6372 7.11562C45.5457 8.02604 46 9.11854 46 10.3931V11.5C46 14.5149 44.9286 17.0909 42.7858 19.228C40.6429 21.3651 38.0506 22.6109 35.0089 22.9655C34.5144 25.576 33.2896 27.7409 31.3346 29.4601C29.3796 31.1794 27.0806 32.1377 24.4375 32.3351V43.125H31.9585C32.3648 43.125 32.706 43.263 32.982 43.539C33.258 43.815 33.396 44.1571 33.396 44.5654C33.396 44.9736 33.258 45.3148 32.982 45.5889C32.706 45.863 32.3648 46 31.9585 46H14.0444C13.6361 46 13.294 45.862 13.018 45.586C12.742 45.31 12.605 44.9679 12.6069 44.5596C12.6088 44.1514 12.7458 43.8102 13.018 43.5361C13.2902 43.262 13.6323 43.125 14.0444 43.125H21.5625ZM10.5052 19.8835V8.625H4.64312C4.12754 8.625 3.70396 8.79079 3.37237 9.12237C3.04079 9.45396 2.875 9.8785 2.875 10.396V11.5C2.875 13.6524 3.60525 15.524 5.06575 17.1149C6.52433 18.7057 8.3375 19.6286 10.5052 19.8835ZM23.0115 29.5234C25.6565 29.5234 27.9009 28.5986 29.7447 26.749C31.5886 24.9013 32.5105 22.656 32.5105 20.0129V4.646C32.5105 4.1285 32.3437 3.70396 32.0102 3.37237C31.6806 3.04079 31.257 2.875 30.7395 2.875H15.2605C14.743 2.875 14.3194 3.04079 13.9898 3.37237C13.6563 3.70396 13.4895 4.1285 13.4895 4.646V20.0158C13.4895 22.6569 14.4153 24.9023 16.2668 26.7519C18.1202 28.5995 20.3694 29.5234 23.0144 29.5234M35.4948 19.8835C37.6625 19.6286 39.4766 18.7057 40.9371 17.1149C42.3957 15.524 43.125 13.6524 43.125 11.5V10.3931C43.125 9.87754 42.9592 9.45396 42.6276 9.12237C42.296 8.79079 41.8725 8.625 41.3569 8.625H35.4948V19.8835Z" fill="#232323"/>
<rect x="18.4004" y="12.3999" width="9.2" height="9.2" rx="4.6" fill="#E60C03"/>
</svg>
