<svg width="51" height="51" viewBox="0 0 51 51" fill="none" xmlns="http://www.w3.org/2000/svg">
<path d="M32.7913 30.7083C32.7913 31.2608 32.5718 31.7907 32.1811 32.1814C31.7904 32.5721 31.2605 32.7916 30.708 32.7916C30.1555 32.7916 29.6256 32.5721 29.2349 32.1814C28.8442 31.7907 28.6247 31.2608 28.6247 30.7083C28.6247 30.1557 28.8442 29.6258 29.2349 29.2351C29.6256 28.8444 30.1555 28.6249 30.708 28.6249C31.2605 28.6249 31.7904 28.8444 32.1811 29.2351C32.5718 29.6258 32.7913 30.1557 32.7913 30.7083ZM22.3747 20.2916C22.3747 20.8441 22.1552 21.374 21.7645 21.7647C21.3738 22.1554 20.8439 22.3749 20.2913 22.3749C19.7388 22.3749 19.2089 22.1554 18.8182 21.7647C18.4275 21.374 18.208 20.8441 18.208 20.2916C18.208 19.7391 18.4275 19.2091 18.8182 18.8184C19.2089 18.4277 19.7388 18.2083 20.2913 18.2083C20.8439 18.2083 21.3738 18.4277 21.7645 18.8184C22.1552 19.2091 22.3747 19.7391 22.3747 20.2916Z" fill="#232323"/>
<path fill-rule="evenodd" clip-rule="evenodd" d="M32.8543 18.1459C33.1469 18.4389 33.3112 18.836 33.3112 19.2501C33.3112 19.6642 33.1469 20.0613 32.8543 20.3543L20.3543 32.8543C20.0581 33.1303 19.6663 33.2805 19.2615 33.2734C18.8567 33.2662 18.4705 33.1022 18.1842 32.816C17.8979 32.5297 17.7339 32.1435 17.7268 31.7387C17.7197 31.3339 17.8699 30.9421 18.1459 30.6459L30.6459 18.1459C30.9389 17.8533 31.336 17.689 31.7501 17.689C32.1642 17.689 32.5613 17.8533 32.8543 18.1459Z" fill="#E60C03"/>
<path fill-rule="evenodd" clip-rule="evenodd" d="M25.3816 3.10425H25.6191C30.4295 3.10425 34.1982 3.10425 37.1399 3.50008C40.1482 3.90425 42.5232 4.75008 44.3878 6.61258C46.2524 8.47716 47.0962 10.8522 47.5003 13.8626C47.8962 16.8022 47.8962 20.5709 47.8962 25.3813V25.6188C47.8962 30.4292 47.8962 34.198 47.5003 37.1397C47.0962 40.148 46.2503 42.523 44.3878 44.3876C42.5232 46.2522 40.1482 47.0959 37.1378 47.5001C34.1982 47.8959 30.4295 47.8959 25.6191 47.8959H25.3816C20.5712 47.8959 16.8024 47.8959 13.8607 47.5001C10.8524 47.0959 8.47741 46.2501 6.61283 44.3876C4.74824 42.523 3.90449 40.148 3.50033 37.1376C3.10449 34.198 3.10449 30.4292 3.10449 25.6188V25.3813C3.10449 20.5709 3.10449 16.8022 3.50033 13.8605C3.90449 10.8522 4.75033 8.47716 6.61283 6.61258C8.47741 4.748 10.8524 3.90425 13.8628 3.50008C16.8024 3.10425 20.5712 3.10425 25.3816 3.10425ZM14.2774 6.59591C11.6149 6.95425 10.0087 7.63758 8.82324 8.823C7.63574 10.0105 6.95449 11.6147 6.59616 14.2792C6.23366 16.9876 6.22949 20.5459 6.22949 25.5001C6.22949 30.4542 6.23366 34.0126 6.59616 36.7209C6.95449 39.3855 7.63783 40.9917 8.82324 42.1792C10.0107 43.3647 11.6149 44.0459 14.2795 44.4042C16.9878 44.7667 20.5462 44.7709 25.5003 44.7709C30.4545 44.7709 34.0128 44.7667 36.7212 44.4042C39.3857 44.0459 40.992 43.3626 42.1795 42.1772C43.3649 40.9897 44.0462 39.3855 44.4045 36.7209C44.767 34.0126 44.7712 30.4542 44.7712 25.5001C44.7712 20.5459 44.767 16.9876 44.4045 14.2792C44.0462 11.6147 43.3628 10.0084 42.1774 8.82091C40.9899 7.6355 39.3857 6.95425 36.7212 6.59591C34.0128 6.23341 30.4545 6.22925 25.5003 6.22925C20.5462 6.22925 16.9857 6.23341 14.2774 6.59591Z" fill="#232323"/>
</svg>
