<svg width="31" height="31" viewBox="0 0 31 31" fill="none" xmlns="http://www.w3.org/2000/svg">
<path d="M2.25646 16.8264C1.99858 16.5685 1.8748 16.2677 1.88512 15.9238C1.89543 15.58 2.02996 15.2791 2.28869 15.0213C2.54657 14.7849 2.84742 14.6611 3.19126 14.6499C3.53509 14.6387 3.83595 14.7625 4.09382 15.0213L8.67112 19.5985L9.12241 20.0498L9.57369 20.5011C9.83156 20.759 9.95534 21.0598 9.94503 21.4037C9.93471 21.7475 9.80019 22.0484 9.54145 22.3062C9.28358 22.5426 8.98272 22.6664 8.63889 22.6776C8.29505 22.6888 7.9942 22.565 7.73632 22.3062L2.25646 16.8264ZM15.9239 19.5663L26.8836 8.60659C27.1415 8.34871 27.4423 8.22536 27.7862 8.23654C28.13 8.24771 28.4309 8.38181 28.6887 8.63882C28.9251 8.8967 29.0489 9.19755 29.0601 9.54139C29.0713 9.88522 28.9475 10.1861 28.6887 10.444L16.8264 22.3062C16.5686 22.5641 16.2677 22.6931 15.9239 22.6931C15.58 22.6931 15.2792 22.5641 15.0213 22.3062L9.54145 16.8264C9.30507 16.59 9.18687 16.2947 9.18687 15.9406C9.18687 15.5864 9.30507 15.28 9.54145 15.0213C9.79933 14.7634 10.1058 14.6344 10.4608 14.6344C10.8158 14.6344 11.1218 14.7634 11.3788 15.0213L15.9239 19.5663ZM21.3715 10.4762L16.8264 15.0213C16.5901 15.2576 16.2948 15.3758 15.9406 15.3758C15.5865 15.3758 15.2801 15.2576 15.0213 15.0213C14.7634 14.7634 14.6345 14.4574 14.6345 14.1032C14.6345 13.7491 14.7634 13.4426 15.0213 13.1839L19.5664 8.63882C19.8028 8.40244 20.0985 8.28424 20.4535 8.28424C20.8085 8.28424 21.1145 8.40244 21.3715 8.63882C21.6294 8.8967 21.7583 9.20271 21.7583 9.55686C21.7583 9.91101 21.6294 10.2175 21.3715 10.4762Z" fill="white"/>
</svg>
