<svg width="28" height="28" viewBox="0 0 28 28" fill="none" xmlns="http://www.w3.org/2000/svg">
<path d="M6.99998 20.9798C5.18763 20.9252 4.10663 20.7231 3.35844 19.9749C2.33331 18.9497 2.33331 17.2998 2.33331 14C2.33331 10.7002 2.33331 9.05025 3.35844 8.02513C4.38357 7 6.03348 7 9.33331 7H18.6666C21.9665 7 23.6164 7 24.6415 8.02513C25.6666 9.05025 25.6666 10.7002 25.6666 14C25.6666 17.2998 25.6666 18.9497 24.6415 19.9749C23.8933 20.7231 22.8123 20.9252 21 20.9798" stroke="#232323" stroke-width="1.5"/>
<path d="M10.5 11.6666H7" stroke="#E60C03" stroke-width="1.5" stroke-linecap="round"/>
<path d="M22.1667 17.5H5.83335" stroke="#232323" stroke-width="1.5" stroke-linecap="round"/>
<path d="M21 17.5V18.6667C21 21.9665 21 23.6164 19.9749 24.6415C18.9497 25.6667 17.2998 25.6667 14 25.6667C10.7002 25.6667 9.05025 25.6667 8.02513 24.6415C7 23.6164 7 21.9665 7 18.6667V17.5" stroke="#232323" stroke-width="1.5" stroke-linecap="round"/>
<path d="M20.9798 7.00004C20.9252 5.18769 20.7231 4.10669 19.9749 3.3585C18.9497 2.33337 17.2998 2.33337 14 2.33337C10.7002 2.33337 9.05024 2.33337 8.02512 3.3585C7.27693 4.10669 7.07481 5.18769 7.0202 7.00004" stroke="#232323" stroke-width="1.5"/>
<circle cx="19.8334" cy="11.6667" r="1.16667" fill="#E60C03"/>
</svg>
