<svg width="28" height="28" viewBox="0 0 28 28" fill="none" xmlns="http://www.w3.org/2000/svg">
<path d="M3.5 10.5C3.5 7.20017 3.5 5.55025 4.52513 4.52513C5.55025 3.5 7.20017 3.5 10.5 3.5H17.5C20.7998 3.5 22.4497 3.5 23.4749 4.52513C24.5 5.55025 24.5 7.20017 24.5 10.5V16.3333C24.5 18.5332 24.5 19.6332 23.8166 20.3166C23.1332 21 22.0332 21 19.8333 21H8.16667C5.96678 21 4.86684 21 4.18342 20.3166C3.5 19.6332 3.5 18.5332 3.5 16.3333V10.5Z" stroke="#232323" stroke-width="1.5"/>
<path d="M25.6666 24.5H2.33331" stroke="#232323" stroke-width="1.5" stroke-linecap="round"/>
<path d="M17.5 17.5H10.5" stroke="#E60C03" stroke-width="1.5" stroke-linecap="round"/>
</svg>
