<svg width="28" height="28" viewBox="0 0 28 28" fill="none" xmlns="http://www.w3.org/2000/svg">
<path d="M5.83331 10.5C5.83331 5.98972 9.48965 2.33337 14 2.33337C18.5103 2.33337 22.1666 5.98972 22.1666 10.5V17.5C22.1666 22.0104 18.5103 25.6667 14 25.6667C9.48965 25.6667 5.83331 22.0104 5.83331 17.5V10.5Z" stroke="#232323" stroke-width="1.5"/>
<path d="M12.25 9.91663C12.25 8.95013 13.0335 8.16663 14 8.16663C14.9665 8.16663 15.75 8.95013 15.75 9.91663V12.25C15.75 13.2165 14.9665 14 14 14C13.0335 14 12.25 13.2165 12.25 12.25V9.91663Z" stroke="#232323" stroke-width="1.5"/>
<path d="M14 2.33337V8.16671" stroke="#E60C03" stroke-width="1.5" stroke-linecap="round"/>
</svg>
