<svg width="28" height="28" viewBox="0 0 28 28" fill="none" xmlns="http://www.w3.org/2000/svg">
<path d="M2.33331 14H14H25.6666M18.6666 14C18.6666 15.5321 18.5459 17.0492 18.3114 18.4647C18.0769 19.8801 17.7332 21.1663 17.2998 22.2496C16.8665 23.333 16.352 24.1923 15.7858 24.7786C15.2197 25.3649 14.6128 25.6667 14 25.6667C13.3871 25.6667 12.7803 25.3649 12.2141 24.7786C11.6479 24.1923 11.1335 23.333 10.7001 22.2496C10.2668 21.1663 9.92306 19.8801 9.68854 18.4647C9.45402 17.0492 9.33331 15.5321 9.33331 14C9.33331 12.468 9.45402 10.9509 9.68854 9.5354C9.92306 8.11994 10.2668 6.83381 10.7001 5.75046C11.1335 4.66711 11.6479 3.80775 12.2141 3.22145C12.7803 2.63514 13.3871 2.33337 14 2.33337C14.6128 2.33337 15.2197 2.63514 15.7858 3.22145C16.352 3.80775 16.8665 4.66711 17.2998 5.75046C17.7332 6.83381 18.0769 8.11994 18.3114 9.5354C18.5459 10.9509 18.6666 12.468 18.6666 14Z" stroke="#232323" stroke-width="1.5" stroke-linecap="round"/>
<path d="M25.6666 14C25.6666 15.5321 25.3649 17.0492 24.7786 18.4647C24.1923 19.8801 23.3329 21.1663 22.2496 22.2496C21.1662 23.333 19.8801 24.1923 18.4646 24.7786C17.0492 25.3649 15.5321 25.6667 14 25.6667C12.4679 25.6667 10.9508 25.3649 9.53534 24.7786C8.11987 24.1923 6.83375 23.333 5.7504 22.2496C4.66705 21.1663 3.80769 19.8801 3.22138 18.4647C2.63508 17.0492 2.33331 15.5321 2.33331 14C2.33331 12.468 2.63508 10.9509 3.22139 9.5354C3.80769 8.11993 4.66705 6.83381 5.7504 5.75046C6.83375 4.66711 8.11988 3.80775 9.53534 3.22145C10.9508 2.63514 12.4679 2.33337 14 2.33337C15.5321 2.33337 17.0492 2.63514 18.4646 3.22145C19.8801 3.80775 21.1662 4.66711 22.2496 5.75046C23.3329 6.83381 24.1923 8.11994 24.7786 9.5354C25.3649 10.9509 25.6666 12.468 25.6666 14L25.6666 14Z" stroke="#E60C03" stroke-width="1.5"/>
</svg>
