<svg width="28" height="28" viewBox="0 0 28 28" fill="none" xmlns="http://www.w3.org/2000/svg">
<path d="M25.6666 25.6667H2.33331" stroke="#232323" stroke-width="1.5" stroke-linecap="round"/>
<path d="M23.3333 25.6666V12.8333" stroke="#E60C03" stroke-width="1.5" stroke-linecap="round"/>
<path d="M4.66669 25.6666V12.8333" stroke="#E60C03" stroke-width="1.5" stroke-linecap="round"/>
<path d="M19.2825 2.33331H8.71759C7.31431 2.33331 6.61266 2.33331 6.04881 2.68179C5.48495 3.03028 5.17117 3.65785 4.5436 4.91298L4.5436 4.91298L2.82425 9.25927C2.49996 10.079 2.2266 11.0219 2.70434 11.7628C3.11963 12.4069 3.84333 12.8333 4.66667 12.8333C5.95533 12.8333 7 11.7886 7 10.5C7 11.7886 8.04467 12.8333 9.33333 12.8333C10.622 12.8333 11.6667 11.7886 11.6667 10.5C11.6667 11.7886 12.7113 12.8333 14 12.8333C15.2887 12.8333 16.3333 11.7886 16.3333 10.5C16.3333 11.7886 17.378 12.8333 18.6667 12.8333C19.9553 12.8333 21 11.7886 21 10.5C21 11.7886 22.0447 12.8333 23.3333 12.8333C24.1567 12.8333 24.8804 12.4069 25.2957 11.7628C25.7735 11.0219 25.5001 10.079 25.1759 9.25927L23.4565 4.91298C22.8289 3.65784 22.5151 3.03028 21.9513 2.68179C21.3874 2.33331 20.6858 2.33331 19.2825 2.33331Z" stroke="#232323" stroke-width="1.5" stroke-linejoin="round"/>
<path d="M11.0833 25.0834V21.5834C11.0833 20.493 11.0833 19.9478 11.3178 19.5417C11.4714 19.2757 11.6923 19.0547 11.9583 18.9011C12.3644 18.6667 12.9096 18.6667 14 18.6667C15.0904 18.6667 15.6356 18.6667 16.0416 18.9011C16.3077 19.0547 16.5286 19.2757 16.6822 19.5417C16.9166 19.9478 16.9166 20.493 16.9166 21.5834V25.0834" stroke="#232323" stroke-width="1.5" stroke-linecap="round"/>
</svg>
