<svg width="28" height="28" viewBox="0 0 28 28" fill="none" xmlns="http://www.w3.org/2000/svg">
<path d="M2.33331 11.6666C2.33331 7.26687 2.33331 5.06698 3.70015 3.70015C5.06698 2.33331 7.26687 2.33331 11.6666 2.33331H16.3333C20.7331 2.33331 22.933 2.33331 24.2998 3.70015C25.6666 5.06698 25.6666 7.26687 25.6666 11.6666V12.8333C25.6666 16.1331 25.6666 17.7831 24.6415 18.8082C23.6164 19.8333 21.9665 19.8333 18.6666 19.8333H9.33331C6.03348 19.8333 4.38357 19.8333 3.35844 18.8082C2.33331 17.7831 2.33331 16.1331 2.33331 12.8333V11.6666Z" stroke="#232323" stroke-width="1.5"/>
<path d="M18.6666 25.6666H9.33331M14 19.8333V25.6666" stroke="#E60C03" stroke-width="1.5" stroke-linecap="round"/>
<path d="M25.6666 15.1667H2.33331" stroke="#232323" stroke-width="1.5" stroke-linecap="round"/>
</svg>
