<svg width="28" height="28" viewBox="0 0 28 28" fill="none" xmlns="http://www.w3.org/2000/svg">
<circle cx="14" cy="15.1666" r="3.5" stroke="#E60C03" stroke-width="1.5"/>
<path d="M11.4074 24.5H16.5926C20.2338 24.5 22.0544 24.5 23.3622 23.642C23.9284 23.2706 24.4145 22.7933 24.7928 22.2374C25.6666 20.9534 25.6666 19.1659 25.6666 15.5909C25.6666 12.0159 25.6666 10.2284 24.7928 8.94437C24.4145 8.38849 23.9284 7.91122 23.3622 7.53979C22.5218 6.98849 21.4698 6.79143 19.859 6.721C19.0903 6.721 18.4285 6.14913 18.2778 5.40909C18.0516 4.29904 17.0589 3.5 15.9059 3.5H12.094C10.941 3.5 9.94832 4.29904 9.7222 5.40909C9.57145 6.14913 8.90964 6.721 8.14097 6.721C6.5302 6.79143 5.47812 6.98849 4.63776 7.53979C4.07159 7.91122 3.58548 8.38849 3.20717 8.94437C2.33331 10.2284 2.33331 12.0159 2.33331 15.5909C2.33331 19.1659 2.33331 20.9534 3.20717 22.2374C3.58548 22.7933 4.07159 23.2706 4.63776 23.642C5.94559 24.5 7.76619 24.5 11.4074 24.5Z" stroke="#232323" stroke-width="1.5"/>
<path d="M22.1667 11.6666H21" stroke="#232323" stroke-width="1.5" stroke-linecap="round"/>
</svg>
