<svg width="27" height="27" viewBox="0 0 27 27" fill="none" xmlns="http://www.w3.org/2000/svg">
<g clip-path="url(#clip0_116_3418)">
<path d="M13.5212 9.19546L2.44781 20.2818C2.19741 20.5322 2.00314 20.8215 1.865 21.1496C1.72685 21.4777 1.65777 21.823 1.65777 22.1857C1.65777 22.5483 1.72685 22.8937 1.865 23.2218C2.00314 23.5499 2.19741 23.8348 2.44781 24.0766C2.6982 24.3183 2.98313 24.5083 3.3026 24.6464C3.62206 24.7846 3.96743 24.858 4.33871 24.8666C4.69271 24.8666 5.03376 24.7975 5.36186 24.6594C5.68996 24.5212 5.98353 24.327 6.24256 24.0766L13.2622 17.0699V19.4141L7.42113 25.2551C7.00669 25.6696 6.53612 25.9847 6.00943 26.2006C5.48274 26.4165 4.92583 26.5244 4.33871 26.5244C3.74294 26.5244 3.18603 26.4121 2.66798 26.1876C2.14993 25.9632 1.68799 25.648 1.28218 25.2422C0.876375 24.8364 0.565543 24.3788 0.349687 23.8694C0.133831 23.3599 0.0172685 22.7987 0 22.1857C0 21.5899 0.107928 21.033 0.323784 20.515C0.53964 19.9969 0.85479 19.5263 1.26923 19.1033L11.708 8.66446C11.6735 8.46587 11.6476 8.26728 11.6303 8.0687C11.6131 7.87011 11.6044 7.6672 11.6044 7.45998C11.6044 6.77788 11.6908 6.12168 11.8634 5.49138C12.0361 4.86108 12.2865 4.26531 12.6146 3.70409C12.9427 3.14286 13.3356 2.63776 13.7932 2.18878C14.2508 1.7398 14.7559 1.35126 15.3085 1.02316C15.8611 0.695056 16.4525 0.444663 17.0828 0.271979C17.7131 0.0992938 18.3737 0.00863424 19.0644 0C19.5307 0 19.958 0.034537 20.3466 0.103611C20.7351 0.172685 21.115 0.276296 21.4863 0.414443C21.8576 0.552591 22.2159 0.716642 22.5613 0.906595C22.9066 1.09655 23.2779 1.30377 23.6751 1.52826L18.5723 6.6311L19.8933 7.95213L24.9961 2.8493C25.2033 3.21194 25.3976 3.57457 25.5789 3.93721C25.7603 4.29985 25.9243 4.67544 26.0711 5.06398C26.2179 5.45252 26.3344 5.84106 26.4208 6.2296C26.5071 6.61814 26.5503 7.03259 26.5503 7.47293C26.5503 8.04279 26.4812 8.60834 26.3431 9.16956C26.2049 9.73079 26.002 10.2661 25.7344 10.7755C25.4667 11.285 25.1559 11.7642 24.8019 12.2131C24.4479 12.6621 24.0377 13.0593 23.5715 13.4047C23.1743 13.2492 22.7685 13.1284 22.354 13.042C21.9396 12.9557 21.5165 12.9039 21.0848 12.8866C21.646 12.6794 22.1598 12.3945 22.626 12.0318C23.0923 11.6692 23.4895 11.2547 23.8176 10.7885C24.1457 10.3222 24.4047 9.8085 24.5946 9.24727C24.7846 8.68604 24.8752 8.10323 24.8666 7.49884C24.8666 6.85127 24.763 6.2296 24.5558 5.63384L19.8933 10.2834L16.241 6.6311L20.8905 1.96861C20.3034 1.76138 19.6947 1.65777 19.0644 1.65777C18.2614 1.65777 17.5102 1.80887 16.8109 2.11107C16.1115 2.41327 15.4985 2.82771 14.9718 3.3544C14.4451 3.88109 14.0306 4.49412 13.7284 5.19349C13.4262 5.89287 13.2708 6.64836 13.2622 7.45998C13.2622 7.75355 13.2881 8.04279 13.3399 8.32772C13.3917 8.61265 13.4521 8.9019 13.5212 9.19546ZM20.7222 14.92C21.5252 14.92 22.2763 15.0711 22.9757 15.3733C23.6751 15.6755 24.2924 16.0899 24.8278 16.6166C25.3631 17.1433 25.7775 17.7563 26.0711 18.4557C26.3647 19.1551 26.5158 19.9106 26.5244 20.7222C26.5244 21.5252 26.3733 22.2763 26.0711 22.9757C25.7689 23.6751 25.3544 24.2924 24.8278 24.8278C24.3011 25.3631 23.688 25.7775 22.9887 26.0711C22.2893 26.3646 21.5338 26.5157 20.7222 26.5244C19.9192 26.5244 19.168 26.3733 18.4686 26.0711C17.7693 25.7689 17.1519 25.3544 16.6166 24.8278C16.0813 24.3011 15.6668 23.688 15.3733 22.9887C15.0797 22.2893 14.9286 21.5338 14.92 20.7222C14.92 19.9192 15.0711 19.168 15.3733 18.4686C15.6755 17.7693 16.0899 17.1519 16.6166 16.6166C17.1433 16.0813 17.7563 15.6668 18.4557 15.3733C19.1551 15.0797 19.9106 14.9286 20.7222 14.92ZM16.5777 20.7222C16.5777 21.292 16.6857 21.8274 16.9015 22.3281C17.1174 22.8289 17.4109 23.2693 17.7822 23.6492C18.1535 24.0291 18.5938 24.327 19.1033 24.5428C19.6127 24.7587 20.1523 24.8666 20.7222 24.8666C21.128 24.8666 21.5252 24.8105 21.9137 24.6982C22.3022 24.586 22.6649 24.4133 23.0016 24.1802L17.2642 18.4427C17.0397 18.7795 16.8713 19.1421 16.7591 19.5306C16.6468 19.9192 16.5864 20.3164 16.5777 20.7222ZM24.1802 23.0016C24.4047 22.6649 24.573 22.3022 24.6853 21.9137C24.7975 21.5252 24.858 21.128 24.8666 20.7222C24.8666 20.1523 24.7587 19.617 24.5428 19.1162C24.327 18.6154 24.0291 18.1794 23.6492 17.8081C23.2693 17.4368 22.8289 17.139 22.3281 16.9145C21.8274 16.69 21.292 16.5777 20.7222 16.5777C20.3164 16.5777 19.9192 16.6339 19.5307 16.7461C19.1421 16.8584 18.7795 17.031 18.4427 17.2642L24.1802 23.0016Z" fill="white"/>
</g>
<defs>
<clipPath id="clip0_116_3418">
<rect width="26.5244" height="26.5244" fill="white"/>
</clipPath>
</defs>
</svg>
