<svg width="26" height="26" viewBox="0 0 26 26" fill="none" xmlns="http://www.w3.org/2000/svg">
<path d="M11.9164 20.5833C11.9164 19.985 11.4316 19.5002 10.8333 19.5002C10.235 19.5002 9.75024 19.985 9.75024 20.5833C9.75024 21.1816 10.235 21.6664 10.8333 21.6664C11.4316 21.6664 11.9164 21.1816 11.9164 20.5833ZM13.0002 20.5833C13.0002 21.7799 12.0299 22.7502 10.8333 22.7502C9.6367 22.7502 8.66638 21.7799 8.66638 20.5833C8.66638 19.3867 9.6367 18.4164 10.8333 18.4164C12.0299 18.4164 13.0002 19.3867 13.0002 20.5833Z" fill="black"/>
<path d="M19.4998 20.5833C19.4998 19.985 19.015 19.5002 18.4167 19.5002C17.8184 19.5002 17.3336 19.985 17.3336 20.5833C17.3336 21.1816 17.8184 21.6664 18.4167 21.6664C19.015 21.6664 19.4998 21.1816 19.4998 20.5833ZM20.5836 20.5833C20.5836 21.7799 19.6133 22.7502 18.4167 22.7502C17.2201 22.7502 16.2498 21.7799 16.2498 20.5833C16.2498 19.3867 17.2201 18.4164 18.4167 18.4164C19.6133 18.4164 20.5836 19.3867 20.5836 20.5833Z" fill="black"/>
<path d="M5.95862 3.79138L6.0451 3.79852C6.24411 3.83073 6.41172 3.97239 6.47437 4.16907L10.1505 15.7083H18.4167C18.7158 15.7083 18.9586 15.9511 18.9586 16.2502C18.9585 16.5493 18.7158 16.7914 18.4167 16.7914H9.75452C9.51871 16.7914 9.30956 16.6392 9.23798 16.4145L5.56268 4.87524H3.79169C3.49253 4.87524 3.24976 4.63247 3.24976 4.33331C3.24976 4.03416 3.49253 3.79138 3.79169 3.79138H5.95862Z" fill="black"/>
<path d="M20.3741 6.49969V6.50049C20.5457 6.50035 20.7148 6.54068 20.8676 6.61871C21.0206 6.69682 21.1528 6.81035 21.2533 6.94958C21.3537 7.08878 21.4201 7.24965 21.4461 7.41931C21.4721 7.58908 21.4567 7.76259 21.4024 7.92554L19.5965 13.3425C19.5247 13.558 19.3872 13.7459 19.203 13.8788C19.0417 13.9952 18.8518 14.064 18.6547 14.0796L18.5698 14.0836H8.90945C8.67402 14.0836 8.46559 13.9309 8.3937 13.7067L6.30929 7.20667C6.25664 7.04213 6.28535 6.8623 6.38705 6.72266C6.48902 6.58287 6.65202 6.49969 6.82504 6.49969H20.3741ZM9.30459 12.9997H18.569L20.3749 7.58356H7.56771L9.30459 12.9997Z" fill="black"/>
</svg>
