<svg width="31" height="31" viewBox="0 0 31 31" fill="none" xmlns="http://www.w3.org/2000/svg">
<g clip-path="url(#clip0_116_3434)">
<path d="M19.5986 29.9136H27.8506C28.3977 29.9136 28.9225 29.6963 29.3094 29.3094C29.6963 28.9225 29.9136 28.3977 29.9136 27.8506V3.0945C29.9136 2.54736 29.6963 2.02262 29.3094 1.63574C28.9225 1.24885 28.3977 1.03149 27.8506 1.03149H19.5986C19.0514 1.03149 18.5267 1.24885 18.1398 1.63574C17.7529 2.02262 17.5356 2.54736 17.5356 3.0945V27.8506C17.5356 28.3977 17.7529 28.9225 18.1398 29.3094C18.5267 29.6963 19.0514 29.9136 19.5986 29.9136ZM19.5986 29.9136H8.25202M13.4095 23.7246V29.9136M17.5356 11.3465H29.9136M20.6301 23.7246H26.8191M3.0945 7.22052H17.5356V23.7246H3.0945C2.54736 23.7246 2.02262 23.5072 1.63574 23.1203C1.24885 22.7334 1.03149 22.2087 1.03149 21.6616V9.28353C1.03149 8.73638 1.24885 8.21165 1.63574 7.82476C2.02262 7.43787 2.54736 7.22052 3.0945 7.22052Z" stroke="white" stroke-width="2.13333"/>
</g>
<defs>
<clipPath id="clip0_116_3434">
<rect width="30.9451" height="30.9451" fill="white"/>
</clipPath>
</defs>
</svg>
