<svg width="18" height="16" viewBox="0 0 18 16" fill="none" xmlns="http://www.w3.org/2000/svg">
<path d="M12.7503 0.354248C11.3003 0.354248 9.90866 1.02925 9.00033 2.09591C8.09199 1.02925 6.70033 0.354248 5.25033 0.354248C2.68366 0.354248 0.666992 2.37091 0.666992 4.93758C0.666992 8.08758 3.50033 10.6542 7.79199 14.5542L9.00033 15.6459L10.2087 14.5459C14.5003 10.6542 17.3337 8.08758 17.3337 4.93758C17.3337 2.37091 15.317 0.354248 12.7503 0.354248ZM9.08366 13.3126L9.00033 13.3959L8.91699 13.3126C4.95033 9.72091 2.33366 7.34591 2.33366 4.93758C2.33366 3.27091 3.58366 2.02091 5.25033 2.02091C6.53366 2.02091 7.78366 2.84591 8.22533 3.98758H9.78366C10.217 2.84591 11.467 2.02091 12.7503 2.02091C14.417 2.02091 15.667 3.27091 15.667 4.93758C15.667 7.34591 13.0503 9.72091 9.08366 13.3126Z" fill="#FF4B43"/>
</svg>
