<svg width="24" height="24" viewBox="0 0 24 24" fill="none" xmlns="http://www.w3.org/2000/svg">
<path d="M19.071 13.142L13.414 18.8C13.0389 19.175 12.5303 19.3856 12 19.3856C11.4696 19.3856 10.961 19.175 10.586 18.8L4.92896 13.143C4.46133 12.6795 4.08986 12.1281 3.83589 11.5206C3.58191 10.9131 3.45043 10.2614 3.44899 9.60299C3.44754 8.94454 3.57617 8.29229 3.82748 7.68368C4.0788 7.07508 4.44785 6.5221 4.91344 6.05651C5.37904 5.59091 5.93201 5.22186 6.54062 4.97055C7.14922 4.71924 7.80147 4.59061 8.45992 4.59205C9.11837 4.59349 9.77006 4.72498 10.3776 4.97895C10.9851 5.23293 11.5364 5.60439 12 6.07203C12.9415 5.1539 14.2069 4.64369 15.522 4.65193C16.8371 4.66017 18.096 5.18619 19.0259 6.11605C19.9559 7.0459 20.4821 8.30472 20.4906 9.6198C20.499 10.9349 19.989 12.2003 19.071 13.142Z" stroke="black" stroke-width="1.33333" stroke-linecap="round" stroke-linejoin="round"/>
</svg>
