<svg width="23" height="23" viewBox="0 0 23 23" fill="none" xmlns="http://www.w3.org/2000/svg">
<path d="M11.5 11.0207C10.8645 11.0207 10.2552 10.7683 9.80585 10.3189C9.35654 9.86964 9.10413 9.26025 9.10413 8.62484C9.10413 7.98942 9.35654 7.38003 9.80585 6.93073C10.2552 6.48142 10.8645 6.229 11.5 6.229C12.1354 6.229 12.7448 6.48142 13.1941 6.93073C13.6434 7.38003 13.8958 7.98942 13.8958 8.62484C13.8958 8.93946 13.8338 9.25101 13.7134 9.54168C13.593 9.83236 13.4165 10.0965 13.1941 10.3189C12.9716 10.5414 12.7075 10.7179 12.4168 10.8383C12.1261 10.9587 11.8146 11.0207 11.5 11.0207ZM11.5 1.9165C9.7208 1.9165 8.01451 2.62327 6.75645 3.88133C5.49839 5.13939 4.79163 6.84568 4.79163 8.62484C4.79163 13.6561 11.5 21.0832 11.5 21.0832C11.5 21.0832 18.2083 13.6561 18.2083 8.62484C18.2083 6.84568 17.5015 5.13939 16.2435 3.88133C14.9854 2.62327 13.2791 1.9165 11.5 1.9165Z" fill="#4E4E4E"/>
</svg>
