<svg width="32" height="32" viewBox="0 0 32 32" fill="none" xmlns="http://www.w3.org/2000/svg">
<path d="M16.0052 0C9.32537 0 7.37177 0.00689289 6.99203 0.0384033C5.62121 0.152382 4.7682 0.368277 3.8389 0.831086C3.12272 1.18681 2.55791 1.59915 2.00047 2.17717C0.985278 3.23129 0.370009 4.52814 0.147282 6.06968C0.0389944 6.81805 0.00749261 6.97068 0.00109381 10.7933C-0.00136726 12.0675 0.00109381 13.7444 0.00109381 15.9937C0.00109381 22.67 0.00847704 24.6221 0.040471 25.0013C0.151219 26.3355 0.360411 27.175 0.803404 28.0932C1.65001 29.8509 3.26694 31.1704 5.17181 31.6627C5.83138 31.8326 6.55986 31.9261 7.49507 31.9705C7.8913 31.9877 11.9299 32 15.971 32C20.0121 32 24.0532 31.9951 24.4396 31.9754C25.5224 31.9244 26.1513 31.84 26.8465 31.6603C27.791 31.418 28.6713 30.9724 29.4258 30.3546C30.1803 29.7368 30.7909 28.9617 31.2149 28.0834C31.6493 27.1873 31.8696 26.3158 31.9692 25.0512C31.9909 24.7755 32 20.3796 32 15.9895C32 11.5988 31.9902 7.21095 31.9685 6.93523C31.8676 5.6502 31.6473 4.78613 31.1989 3.87282C30.831 3.12519 30.4224 2.56686 29.8293 1.99598C28.7711 0.984699 27.4765 0.369262 25.9337 0.14672C25.1863 0.0386494 25.0374 0.00664672 21.2129 0H16.0052Z" fill="url(#paint0_radial_650_3951)"/>
<path d="M16.0007 4C12.7417 4 12.3327 4.01425 11.0527 4.0725C9.77525 4.131 8.90325 4.33325 8.14025 4.63C7.351 4.9365 6.6815 5.3465 6.0145 6.01375C5.347 6.68075 4.937 7.35025 4.6295 8.13925C4.332 8.9025 4.1295 9.77475 4.072 11.0518C4.015 12.3318 4 12.741 4 16C4 19.259 4.0145 19.6668 4.0725 20.9468C4.13125 22.2243 4.3335 23.0962 4.63 23.8592C4.93675 24.6485 5.34675 25.318 6.014 25.985C6.68075 26.6525 7.35025 27.0635 8.139 27.37C8.9025 27.6668 9.77475 27.869 11.052 27.9275C12.332 27.9857 12.7407 28 15.9995 28C19.2587 28 19.6665 27.9857 20.9465 27.9275C22.224 27.869 23.097 27.6668 23.8605 27.37C24.6495 27.0635 25.318 26.6525 25.9847 25.985C26.6522 25.318 27.0622 24.6485 27.3697 23.8595C27.6647 23.0963 27.8672 22.224 27.9272 20.947C27.9847 19.667 27.9997 19.259 27.9997 16C27.9997 12.741 27.9847 12.332 27.9272 11.052C27.8672 9.7745 27.6647 8.9025 27.3697 8.1395C27.0622 7.35025 26.6522 6.68075 25.9847 6.01375C25.3172 5.34625 24.6497 4.93625 23.8597 4.63C23.0947 4.33325 22.2222 4.131 20.9447 4.0725C19.6647 4.01425 19.2572 4 15.9972 4H16.0007ZM14.9242 6.1625C15.2437 6.162 15.6002 6.1625 16.0007 6.1625C19.2047 6.1625 19.5845 6.174 20.8497 6.2315C22.0197 6.285 22.6547 6.4805 23.0777 6.64475C23.6377 6.86225 24.037 7.12225 24.4567 7.54225C24.8767 7.96225 25.1367 8.36225 25.3547 8.92225C25.519 9.34475 25.7147 9.97975 25.768 11.1497C25.8255 12.4147 25.838 12.7947 25.838 15.9972C25.838 19.1997 25.8255 19.5797 25.768 20.8447C25.7145 22.0147 25.519 22.6498 25.3547 23.0723C25.1372 23.6323 24.8767 24.031 24.4567 24.4508C24.0367 24.8708 23.638 25.1307 23.0777 25.3482C22.6552 25.5132 22.0197 25.7082 20.8497 25.7617C19.5847 25.8192 19.2047 25.8318 16.0007 25.8318C12.7965 25.8318 12.4167 25.8192 11.1517 25.7617C9.98175 25.7077 9.34675 25.5122 8.9235 25.348C8.3635 25.1305 7.9635 24.8705 7.5435 24.4505C7.1235 24.0305 6.8635 23.6315 6.6455 23.0713C6.48125 22.6488 6.2855 22.0137 6.23225 20.8438C6.17475 19.5788 6.16325 19.1987 6.16325 15.9942C6.16325 12.7897 6.17475 12.4118 6.23225 11.1468C6.28575 9.97675 6.48125 9.34175 6.6455 8.91875C6.863 8.35875 7.1235 7.95875 7.5435 7.53875C7.9635 7.11875 8.3635 6.85875 8.9235 6.64075C9.3465 6.47575 9.98175 6.28075 11.1517 6.227C12.2587 6.177 12.6877 6.162 14.9242 6.1595V6.1625ZM22.4062 8.155C22.1214 8.155 21.843 8.23947 21.6062 8.39772C21.3694 8.55597 21.1848 8.7809 21.0758 9.04405C20.9668 9.30721 20.9384 9.59677 20.994 9.87611C21.0496 10.1555 21.1868 10.412 21.3882 10.6134C21.5896 10.8148 21.8463 10.9519 22.1256 11.0074C22.405 11.0629 22.6945 11.0343 22.9577 10.9252C23.2208 10.8162 23.4456 10.6315 23.6038 10.3947C23.762 10.1578 23.8463 9.87933 23.8462 9.5945C23.8462 8.7995 23.2012 8.1545 22.4062 8.1545V8.155ZM16.0007 9.8375C12.5975 9.8375 9.83825 12.5968 9.83825 16C9.83825 19.4032 12.5975 22.1612 16.0007 22.1612C19.404 22.1612 22.1625 19.4032 22.1625 16C22.1625 12.5968 19.404 9.8375 16.0007 9.8375ZM16.0007 12C18.2097 12 20.0007 13.7908 20.0007 16C20.0007 18.209 18.2097 20 16.0007 20C13.7915 20 12.0007 18.209 12.0007 16C12.0007 13.7908 13.7915 12 16.0007 12Z" fill="white"/>
<defs>
<radialGradient id="paint0_radial_650_3951" cx="0" cy="0" r="1" gradientUnits="userSpaceOnUse" gradientTransform="translate(8.50004 34.4647) rotate(-90) scale(31.7144 29.4969)">
<stop stop-color="#FFDD55"/>
<stop offset="0.1" stop-color="#FFDD55"/>
<stop offset="0.5" stop-color="#FF543E"/>
<stop offset="1" stop-color="#C837AB"/>
</radialGradient>
</defs>
</svg>
