<svg width="190" height="190" viewBox="0 0 190 190" fill="none" xmlns="http://www.w3.org/2000/svg">
<path fill-rule="evenodd" clip-rule="evenodd" d="M95.0002 0.833313C69.4245 0.833313 66.2228 0.940035 56.1784 1.39831C46.1528 1.85659 39.3037 3.45115 33.3147 5.7802C27.0369 8.14065 21.343 11.8445 16.6347 16.6408C11.8461 21.3437 8.13994 27.0336 5.77411 33.3145C3.45761 39.3035 1.85677 46.1589 1.3985 56.1845C0.946496 66.2226 0.833496 69.418 0.833496 95C0.833496 120.582 0.940218 123.777 1.3985 133.822C1.85677 143.847 3.45133 150.696 5.78038 156.685C8.14083 162.963 11.8447 168.657 16.6409 173.365C21.344 178.154 27.0339 181.86 33.3147 184.226C39.3037 186.549 46.1528 188.143 56.1784 188.602C66.2228 189.06 69.4245 189.167 95.0002 189.167C120.576 189.167 123.777 189.06 133.822 188.602C143.848 188.143 150.697 186.549 156.686 184.22C162.963 181.859 168.657 178.155 173.366 173.359C178.154 168.656 181.86 162.966 184.226 156.685C186.549 150.696 188.144 143.847 188.602 133.822C189.06 123.777 189.167 120.576 189.167 95C189.167 69.4243 189.06 66.2226 188.602 56.1782C188.144 46.1526 186.549 39.3035 184.22 33.3145C181.856 27.0309 178.149 21.3386 173.359 16.6345C168.656 11.8459 162.967 8.13976 156.686 5.77392C150.697 3.45742 143.841 1.85659 133.816 1.39831C123.777 0.946313 120.582 0.833313 95.0002 0.833313ZM95.0002 17.8021C120.143 17.8021 123.125 17.8963 133.056 18.3483C142.234 18.7689 147.219 20.2944 150.54 21.5939C154.934 23.2952 158.073 25.3418 161.369 28.6313C164.665 31.9271 166.705 35.066 168.406 39.4605C169.699 42.7814 171.231 47.766 171.652 56.9441C172.104 66.8755 172.198 69.8575 172.198 95C172.198 120.142 172.104 123.124 171.652 133.056C171.231 142.234 169.706 147.219 168.406 150.539C166.899 154.63 164.494 158.33 161.369 161.369C158.331 164.495 154.63 166.9 150.54 168.406C147.219 169.699 142.234 171.231 133.056 171.652C123.125 172.104 120.149 172.198 95.0002 172.198C69.8514 172.198 66.8757 172.104 56.9443 171.652C47.7662 171.231 42.7816 169.706 39.4607 168.406C35.3704 166.899 31.67 164.494 28.6315 161.369C25.5063 158.33 23.1016 154.63 21.5941 150.539C20.3009 147.219 18.7691 142.234 18.3485 133.056C17.8965 123.124 17.8023 120.142 17.8023 95C17.8023 69.8575 17.8965 66.8755 18.3485 56.9441C18.7691 47.766 20.2946 42.7814 21.5941 39.4605C23.2954 35.066 25.3419 31.9271 28.6315 28.6313C31.6696 25.5053 35.3701 23.1004 39.4607 21.5939C42.7816 20.3007 47.7662 18.7689 56.9443 18.3483C66.8757 17.8963 69.8577 17.8021 95.0002 17.8021Z" fill="#7D7D7D"/>
<path fill-rule="evenodd" clip-rule="evenodd" d="M95.0003 126.42C90.8741 126.42 86.7884 125.608 82.9763 124.029C79.1642 122.45 75.7005 120.135 72.7828 117.217C69.8652 114.3 67.5508 110.836 65.9718 107.024C64.3927 103.212 63.58 99.1261 63.58 95C63.58 90.8738 64.3927 86.788 65.9718 82.9759C67.5508 79.1639 69.8652 75.7001 72.7828 72.7825C75.7005 69.8648 79.1642 67.5504 82.9763 65.9714C86.7884 64.3924 90.8741 63.5797 95.0003 63.5797C103.333 63.5797 111.325 66.89 117.218 72.7825C123.11 78.6749 126.421 86.6668 126.421 95C126.421 103.333 123.11 111.325 117.218 117.217C111.325 123.11 103.333 126.42 95.0003 126.42ZM95.0003 46.5983C82.1634 46.5983 69.8522 51.6978 60.7752 60.7748C51.6981 69.8519 46.5986 82.1631 46.5986 95C46.5986 107.837 51.6981 120.148 60.7752 129.225C69.8522 138.302 82.1634 143.402 95.0003 143.402C107.837 143.402 120.148 138.302 129.225 129.225C138.303 120.148 143.402 107.837 143.402 95C143.402 82.1631 138.303 69.8519 129.225 60.7748C120.148 51.6978 107.837 46.5983 95.0003 46.5983ZM157.483 45.7194C157.483 48.7538 156.278 51.664 154.132 53.8096C151.986 55.9553 149.076 57.1607 146.042 57.1607C143.007 57.1607 140.097 55.9553 137.952 53.8096C135.806 51.664 134.601 48.7538 134.601 45.7194C134.601 42.685 135.806 39.7749 137.952 37.6292C140.097 35.4836 143.007 34.2782 146.042 34.2782C149.076 34.2782 151.986 35.4836 154.132 37.6292C156.278 39.7749 157.483 42.685 157.483 45.7194Z" fill="#7D7D7D"/>
</svg>
