<svg width="14" height="11" viewBox="0 0 14 11" fill="none" xmlns="http://www.w3.org/2000/svg">
<path fill-rule="evenodd" clip-rule="evenodd" d="M13.3975 5.16988C13.5028 5.27535 13.562 5.41831 13.562 5.56738C13.562 5.71644 13.5028 5.85941 13.3975 5.96488L8.89751 10.4649C8.84601 10.5201 8.78391 10.5645 8.71491 10.5952C8.64591 10.626 8.57143 10.6425 8.4959 10.6438C8.42037 10.6452 8.34535 10.6313 8.27531 10.603C8.20527 10.5747 8.14164 10.5326 8.08823 10.4792C8.03481 10.4257 7.99271 10.3621 7.96441 10.2921C7.93612 10.222 7.92223 10.147 7.92356 10.0715C7.9249 9.99596 7.94143 9.92147 7.97217 9.85247C8.00291 9.78347 8.04724 9.72137 8.10251 9.66988L11.6425 6.12988H1.00001C0.850822 6.12988 0.707747 6.07061 0.602259 5.96512C0.49677 5.85963 0.437507 5.71656 0.437507 5.56738C0.437507 5.41819 0.49677 5.27512 0.602259 5.16963C0.707747 5.06414 0.850822 5.00488 1.00001 5.00488H11.6425L8.10251 1.46488C8.04724 1.41338 8.00291 1.35128 7.97217 1.28228C7.94143 1.21328 7.9249 1.13879 7.92356 1.06327C7.92223 0.987741 7.93612 0.912719 7.96441 0.842678C7.99271 0.772636 8.03481 0.709011 8.08823 0.655597C8.14164 0.602183 8.20527 0.560075 8.27531 0.531784C8.34535 0.503493 8.42037 0.4896 8.4959 0.490932C8.57143 0.492265 8.64591 0.508796 8.71491 0.53954C8.78391 0.570284 8.84601 0.614611 8.89751 0.669876L13.3975 5.16988Z" fill="#E60C03"/>
</svg>
