<svg width="23" height="22" viewBox="0 0 23 22" fill="none" xmlns="http://www.w3.org/2000/svg">
<path d="M14.244 14.536C12.9108 15.6771 11.2129 16.303 9.45796 16.3003C7.99953 16.3003 6.57386 15.8678 5.36122 15.0576C4.14858 14.2473 3.20344 13.0957 2.64533 11.7483C2.08721 10.4008 1.94118 8.9182 2.22571 7.48779C2.51023 6.05739 3.21253 4.74347 4.2438 3.71221C5.27506 2.68095 6.58897 1.97865 8.01938 1.69412C9.44978 1.4096 10.9324 1.55562 12.2798 2.11374C13.6273 2.67186 14.7789 3.61699 15.5892 4.82963C16.3994 6.04227 16.8319 7.46795 16.8319 8.92638C16.8346 10.6813 16.2087 12.3792 15.0676 13.7125L19.766 18.4116C19.8232 18.4649 19.869 18.5292 19.9008 18.6006C19.9327 18.672 19.9498 18.7491 19.9512 18.8272C19.9525 18.9054 19.9382 18.983 19.9089 19.0555C19.8796 19.128 19.836 19.1939 19.7807 19.2491C19.7255 19.3044 19.6596 19.348 19.5871 19.3773C19.5146 19.4066 19.437 19.4209 19.3588 19.4196C19.2807 19.4182 19.2036 19.4011 19.1322 19.3693C19.0607 19.3374 18.9965 19.2916 18.9432 19.2344L14.244 14.536ZM15.6676 8.92638C15.6676 7.27948 15.0134 5.70003 13.8488 4.5355C12.6843 3.37097 11.1049 2.71674 9.45796 2.71674C7.81106 2.71674 6.23162 3.37097 5.06709 4.5355C3.90255 5.70003 3.24832 7.27948 3.24832 8.92638C3.24832 10.5733 3.90255 12.1527 5.06709 13.3173C6.23162 14.4818 7.81106 15.136 9.45796 15.136C11.1049 15.136 12.6843 14.4818 13.8488 13.3173C15.0134 12.1527 15.6676 10.5733 15.6676 8.92638Z" fill="#6F6F6F"/>
</svg>
