<svg width="22" height="22" viewBox="0 0 22 22" fill="none" xmlns="http://www.w3.org/2000/svg">
<path d="M14.4421 13.0671H13.7179L13.4613 12.8196C14.3596 11.7746 14.9004 10.4179 14.9004 8.9421C14.9004 5.65126 12.2329 2.98376 8.9421 2.98376C5.65126 2.98376 2.98376 5.65126 2.98376 8.9421C2.98376 12.2329 5.65126 14.9004 8.9421 14.9004C10.4179 14.9004 11.7746 14.3596 12.8196 13.4613L13.0671 13.7179V14.4421L17.6504 19.0163L19.0163 17.6504L14.4421 13.0671ZM8.9421 13.0671C6.6596 13.0671 4.8171 11.2246 4.8171 8.9421C4.8171 6.6596 6.6596 4.8171 8.9421 4.8171C11.2246 4.8171 13.0671 6.6596 13.0671 8.9421C13.0671 11.2246 11.2246 13.0671 8.9421 13.0671Z" fill="#8B96A5"/>
</svg>
