<svg width="31" height="30" viewBox="0 0 31 30" fill="none" xmlns="http://www.w3.org/2000/svg">
<circle cx="15.5" cy="15" r="3.75" stroke="white" stroke-width="1.5"/>
<path d="M17.7068 2.6903C17.2474 2.5 16.665 2.5 15.5001 2.5C14.3353 2.5 13.7528 2.5 13.2934 2.6903C12.6808 2.94404 12.1941 3.43072 11.9404 4.04329C11.8246 4.32293 11.7793 4.64813 11.7615 5.12249C11.7354 5.8196 11.3779 6.46487 10.7738 6.81366C10.1697 7.16246 9.43211 7.14942 8.81537 6.82345C8.39568 6.60163 8.09138 6.47828 7.79129 6.43877C7.13392 6.35223 6.4691 6.53037 5.94307 6.934C5.54855 7.23672 5.25734 7.74112 4.67491 8.74991C4.09249 9.75871 3.80127 10.2631 3.73636 10.7561C3.64982 11.4135 3.82796 12.0783 4.23159 12.6043C4.41583 12.8444 4.67475 13.0463 5.0766 13.2988C5.66737 13.67 6.04748 14.3023 6.04745 15C6.04741 15.6977 5.66731 16.3299 5.0766 16.7011C4.67468 16.9536 4.41572 17.1554 4.23147 17.3956C3.82784 17.9216 3.6497 18.5864 3.73624 19.2438C3.80115 19.7368 4.09236 20.2412 4.67479 21.25C5.25722 22.2588 5.54843 22.7632 5.94295 23.0659C6.46898 23.4695 7.1338 23.6477 7.79117 23.5611C8.09124 23.5216 8.39552 23.3983 8.81517 23.1765C9.43196 22.8505 10.1696 22.8375 10.7737 23.1863C11.3779 23.5351 11.7354 24.1804 11.7615 24.8776C11.7793 25.3519 11.8246 25.6771 11.9404 25.9567C12.1941 26.5693 12.6808 27.056 13.2934 27.3097C13.7528 27.5 14.3353 27.5 15.5001 27.5C16.665 27.5 17.2474 27.5 17.7068 27.3097C18.3194 27.056 18.8061 26.5693 19.0598 25.9567C19.1756 25.6771 19.221 25.3519 19.2387 24.8775C19.2648 24.1804 19.6222 23.5351 20.2263 23.1863C20.8305 22.8374 21.5682 22.8504 22.185 23.1764C22.6046 23.3982 22.9089 23.5216 23.2089 23.5611C23.8663 23.6476 24.5311 23.4695 25.0571 23.0658C25.4517 22.7631 25.7429 22.2587 26.3253 21.2499C26.9077 20.2411 27.1989 19.7367 27.2639 19.2437C27.3504 18.5863 27.1723 17.9215 26.7686 17.3955C26.5844 17.1554 26.3254 16.9535 25.9235 16.701C25.3328 16.3298 24.9527 15.6975 24.9528 14.9999C24.9528 14.3023 25.3329 13.6701 25.9235 13.299C26.3255 13.0464 26.5845 12.8446 26.7687 12.6044C27.1724 12.0784 27.3505 11.4136 27.264 10.7562C27.1991 10.2632 26.9079 9.75879 26.3254 8.75C25.743 7.74121 25.4518 7.23681 25.0573 6.93409C24.5312 6.53045 23.8664 6.35231 23.209 6.43886C22.909 6.47836 22.6047 6.6017 22.185 6.8235C21.5683 7.14949 20.8306 7.16252 20.2265 6.8137C19.6223 6.46488 19.2648 5.81958 19.2387 5.12242C19.221 4.6481 19.1756 4.32291 19.0598 4.04329C18.8061 3.43072 18.3194 2.94404 17.7068 2.6903Z" stroke="white" stroke-width="1.5"/>
</svg>
