<svg width="30" height="30" viewBox="0 0 30 30" fill="none" xmlns="http://www.w3.org/2000/svg">
<path d="M26.5625 13.75C26.5625 11.3666 26.5606 9.67324 26.3879 8.38867C26.2189 7.13106 25.9013 6.4067 25.3723 5.87769C24.8433 5.34867 24.1189 5.03114 22.8613 4.86206C21.5768 4.68937 19.8834 4.6875 17.5 4.6875H12.5C10.1166 4.6875 8.42324 4.68937 7.13867 4.86206C5.88106 5.03114 5.1567 5.34867 4.62769 5.87769C4.09867 6.4067 3.78114 7.13106 3.61206 8.38867C3.43937 9.67324 3.4375 11.3666 3.4375 13.75V14.0625H26.5625V13.75ZM28.4375 16.25C28.4375 16.7678 28.0178 17.1875 27.5 17.1875C26.9822 17.1875 26.5625 16.7678 26.5625 16.25V15.9375H3.4375V16.25C3.4375 18.6334 3.43937 20.3268 3.61206 21.6113C3.78114 22.8689 4.09867 23.5933 4.62769 24.1223C5.1567 24.6513 5.88106 24.9689 7.13867 25.1379C8.42324 25.3106 10.1166 25.3125 12.5 25.3125H16.25C16.7678 25.3125 17.1875 25.7322 17.1875 26.25C17.1875 26.7678 16.7678 27.1875 16.25 27.1875H12.5C10.1695 27.1875 8.32699 27.1893 6.88843 26.9958C5.42305 26.7988 4.23739 26.3834 3.302 25.448C2.36662 24.5126 1.9512 23.327 1.75415 21.8616C1.56074 20.423 1.5625 18.5805 1.5625 16.25V13.75C1.5625 11.4195 1.56074 9.57699 1.75415 8.13843C1.9512 6.67305 2.36662 5.48739 3.302 4.552C4.23739 3.61662 5.42305 3.2012 6.88843 3.00415C8.32699 2.81074 10.1695 2.8125 12.5 2.8125H17.5C19.8305 2.8125 21.673 2.81074 23.1116 3.00415C24.577 3.2012 25.7626 3.61662 26.698 4.552C27.6334 5.48739 28.0488 6.67305 28.2458 8.13843C28.4393 9.57699 28.4375 11.4195 28.4375 13.75V16.25Z" fill="white"/>
<path d="M22.5 8.4375C23.0178 8.4375 23.4375 8.85723 23.4375 9.375C23.4375 9.89277 23.0178 10.3125 22.5 10.3125L16.875 10.3125C16.3572 10.3125 15.9375 9.89277 15.9375 9.375C15.9375 8.85723 16.3572 8.4375 16.875 8.4375L22.5 8.4375Z" fill="white"/>
<path d="M6.5625 19.375C6.5625 18.8572 6.98223 18.4375 7.5 18.4375C8.01777 18.4375 8.4375 18.8572 8.4375 19.375L8.4375 21.875C8.4375 22.3928 8.01777 22.8125 7.5 22.8125C6.98223 22.8125 6.5625 22.3928 6.5625 21.875L6.5625 19.375Z" fill="white"/>
<path d="M6.5625 8.125C6.5625 7.60723 6.98223 7.1875 7.5 7.1875C8.01777 7.1875 8.4375 7.60723 8.4375 8.125L8.4375 10.625C8.4375 11.1428 8.01777 11.5625 7.5 11.5625C6.98223 11.5625 6.5625 11.1428 6.5625 10.625L6.5625 8.125Z" fill="white"/>
<path d="M10.3125 19.375C10.3125 18.8572 10.7322 18.4375 11.25 18.4375C11.7678 18.4375 12.1875 18.8572 12.1875 19.375L12.1875 21.875C12.1875 22.3928 11.7678 22.8125 11.25 22.8125C10.7322 22.8125 10.3125 22.3928 10.3125 21.875L10.3125 19.375Z" fill="white"/>
<path d="M10.3125 8.125C10.3125 7.60723 10.7322 7.1875 11.25 7.1875C11.7678 7.1875 12.1875 7.60723 12.1875 8.125L12.1875 10.625C12.1875 11.1428 11.7678 11.5625 11.25 11.5625C10.7322 11.5625 10.3125 11.1428 10.3125 10.625L10.3125 8.125Z" fill="white"/>
<path d="M23.1316 17.8125C24.7279 17.8125 26.1811 18.5381 27.0134 19.7058C27.3138 20.1273 27.2162 20.7126 26.7949 21.0132C26.3732 21.3137 25.788 21.2151 25.4875 20.7935C25.0379 20.1625 24.1768 19.6875 23.1316 19.6875C21.9234 19.6875 21.0234 20.2901 20.6328 21.0376C20.7406 21.0919 20.8399 21.1685 20.9233 21.2659C21.2594 21.6591 21.2135 22.25 20.8208 22.5867L20.0908 23.2117C19.7399 23.5121 19.2222 23.5121 18.8713 23.2117L18.1413 22.5867C17.748 22.25 17.7021 21.6592 18.0388 21.2659C18.2035 21.0734 18.4288 20.9644 18.6626 20.9424C19.1487 19.0704 21.0666 17.8125 23.1316 17.8125Z" fill="white"/>
<path d="M26.1594 21.7883C26.5103 21.4879 27.0279 21.4879 27.3789 21.7883L28.1088 22.4133C28.5022 22.75 28.548 23.3407 28.2114 23.7341C28.0467 23.9265 27.8213 24.0343 27.5876 24.0563C27.1019 25.9289 25.184 27.1874 23.1186 27.1874C21.5223 27.1874 20.0691 26.4619 19.2368 25.2941C18.9364 24.8726 19.0339 24.2873 19.4553 23.9868C19.8769 23.6863 20.4622 23.7848 20.7626 24.2065C21.2123 24.8374 22.0734 25.3124 23.1186 25.3124C24.327 25.3124 25.2257 24.7089 25.6162 23.9611C25.5089 23.9069 25.4099 23.831 25.3269 23.7341C24.9907 23.3409 25.0366 22.7499 25.4294 22.4133L26.1594 21.7883Z" fill="white"/>
</svg>
