<svg width="32" height="31" viewBox="0 0 32 31" fill="none" xmlns="http://www.w3.org/2000/svg">
<path fill-rule="evenodd" clip-rule="evenodd" d="M12.3914 4.11014C12.0657 4.2133 11.7441 4.33056 11.4274 4.46173C9.97782 5.06217 8.66069 5.94224 7.55122 7.05171C6.44176 8.16118 5.56168 9.4783 4.96124 10.9279C4.48472 12.0783 4.19174 13.2943 4.0911 14.5314H9.87838C9.91972 13.1159 10.0515 11.7209 10.2706 10.3988C10.5392 8.77779 10.936 7.28405 11.4468 6.00691C11.7257 5.30965 12.0408 4.67137 12.3914 4.11014ZM15.9997 1.61475C14.1762 1.61475 12.3706 1.9739 10.686 2.67171C9.0013 3.36952 7.47058 4.39231 6.1812 5.68169C4.89182 6.97107 3.86903 8.50179 3.17122 10.1864C2.47342 11.8711 2.11426 13.6767 2.11426 15.5002C2.11426 17.3236 2.47341 19.1292 3.17122 20.8139C3.86903 22.4985 4.89182 24.0293 6.1812 25.3186C7.47058 26.608 9.0013 27.6308 10.686 28.3286C12.3706 29.0264 14.1762 29.3856 15.9997 29.3856C17.8231 29.3856 19.6287 29.0264 21.3134 28.3286C22.9981 27.6308 24.5288 26.608 25.8181 25.3186C27.1075 24.0293 28.1303 22.4985 28.8281 20.8139C29.5259 19.1292 29.8851 17.3236 29.8851 15.5002C29.8851 13.6767 29.5259 11.8711 28.8281 10.1864C28.1303 8.50179 27.1075 6.97107 25.8182 5.68169C24.5288 4.39231 22.9981 3.36952 21.3134 2.67171C19.6287 1.9739 17.8231 1.61475 15.9997 1.61475ZM15.9997 3.55225C15.6622 3.55225 15.2263 3.71473 14.7193 4.23967C14.2087 4.76849 13.6974 5.59729 13.2458 6.72648C12.7971 7.84819 12.4327 9.2023 12.182 10.7155C11.9809 11.9296 11.8575 13.218 11.8168 14.5314L20.1826 14.5314C20.1418 13.218 20.0185 11.9296 19.8173 10.7155C19.5666 9.2023 19.2023 7.8482 18.7536 6.72649C18.3019 5.59729 17.7907 4.76849 17.28 4.23967C16.7731 3.71473 16.3371 3.55225 15.9997 3.55225ZM22.121 14.5314C22.0796 13.1159 21.9478 11.7209 21.7288 10.3988C21.4602 8.77779 21.0634 7.28405 20.5525 6.00692C20.2736 5.30965 19.9585 4.67136 19.608 4.11013C19.9337 4.2133 20.2553 4.33056 20.5719 4.46173C22.0215 5.06217 23.3387 5.94225 24.4481 7.05171C25.5576 8.16118 26.4377 9.47831 27.0381 10.9279C27.5146 12.0783 27.8076 13.2943 27.9083 14.5314H22.121ZM20.1826 16.4689L11.8168 16.4689C11.8575 17.7824 11.9809 19.0707 12.182 20.2848C12.4327 21.798 12.7971 23.1521 13.2458 24.2738C13.6974 25.403 14.2087 26.2318 14.7193 26.7607C15.2263 27.2856 15.6622 27.4481 15.9997 27.4481C16.3371 27.4481 16.7731 27.2856 17.28 26.7607C17.7907 26.2318 18.3019 25.403 18.7536 24.2738C19.2023 23.1521 19.5666 21.798 19.8173 20.2848C20.0185 19.0707 20.1418 17.7824 20.1826 16.4689ZM19.608 26.8902C19.9585 26.329 20.2736 25.6907 20.5525 24.9934C21.0634 23.7163 21.4602 22.2225 21.7288 20.6015C21.9478 19.2794 22.0796 17.8844 22.121 16.4689H27.9083C27.8076 17.7061 27.5146 18.922 27.0381 20.0724C26.4377 21.522 25.5576 22.8391 24.4481 23.9486C23.3387 25.0581 22.0215 25.9382 20.5719 26.5386C20.2553 26.6698 19.9337 26.787 19.608 26.8902ZM12.3913 26.8902C12.0408 26.329 11.7257 25.6907 11.4468 24.9934C10.936 23.7163 10.5392 22.2225 10.2706 20.6015C10.0515 19.2794 9.91972 17.8844 9.87838 16.4689H4.0911C4.19174 17.7061 4.48472 18.922 4.96124 20.0724C5.56168 21.522 6.44175 22.8392 7.55122 23.9486C8.66069 25.0581 9.97782 25.9382 11.4274 26.5386C11.7441 26.6698 12.0657 26.787 12.3913 26.8902Z" fill="white"/>
</svg>
