<svg width="30" height="29" viewBox="0 0 30 29" fill="none" xmlns="http://www.w3.org/2000/svg">
<path d="M7.75 12.0802C7.76748 10.0181 7.88197 8.88129 8.63163 8.13163C9.38129 7.38197 10.5181 7.26748 12.5802 7.25" stroke="white" stroke-width="1.5" stroke-linecap="round"/>
<path d="M7.75 16.9169C7.76748 18.979 7.88197 20.1158 8.63163 20.8654C9.38129 21.6151 10.5181 21.7296 12.5802 21.7471" stroke="white" stroke-width="1.5" stroke-linecap="round"/>
<path d="M22.2471 12.0802C22.2296 10.0181 22.1151 8.88129 21.3654 8.13163C20.6158 7.38197 19.479 7.26748 17.4169 7.25" stroke="white" stroke-width="1.5" stroke-linecap="round"/>
<path d="M22.2471 16.9169C22.2296 18.979 22.1151 20.1158 21.3654 20.8654C20.6158 21.6151 19.479 21.7296 17.4169 21.7471" stroke="white" stroke-width="1.5" stroke-linecap="round"/>
<path d="M2.91699 14.4998C2.91699 8.8037 2.91699 5.95563 4.68656 4.18607C6.45612 2.4165 9.30419 2.4165 15.0003 2.4165C20.6965 2.4165 23.5445 2.4165 25.3141 4.18607C27.0837 5.95563 27.0837 8.8037 27.0837 14.4998C27.0837 20.196 27.0837 23.044 25.3141 24.8136C23.5445 26.5832 20.6965 26.5832 15.0003 26.5832C9.30419 26.5832 6.45612 26.5832 4.68656 24.8136C2.91699 23.044 2.91699 20.196 2.91699 14.4998Z" stroke="white" stroke-width="1.5"/>
</svg>
