<svg width="32" height="31" viewBox="0 0 32 31" fill="none" xmlns="http://www.w3.org/2000/svg">
<path d="M26.6562 16.7915C26.6562 10.9062 21.8853 6.13525 16 6.13525C10.1147 6.13525 5.34375 10.9062 5.34375 16.7915C5.34375 22.6768 10.1147 27.4478 16 27.4478C21.8853 27.4478 26.6562 22.6768 26.6562 16.7915ZM28.5938 16.7915C28.5938 23.7468 22.9553 29.3853 16 29.3853C9.04466 29.3853 3.40625 23.7468 3.40625 16.7915C3.40625 9.83617 9.04466 4.19775 16 4.19775C22.9553 4.19775 28.5938 9.83617 28.5938 16.7915Z" fill="white"/>
<path d="M15.0312 16.7917V11.625C15.0312 11.09 15.465 10.6562 16 10.6562C16.535 10.6562 16.9688 11.09 16.9688 11.625V16.7917C16.9688 17.3267 16.535 17.7604 16 17.7604C15.465 17.7604 15.0312 17.3267 15.0312 16.7917Z" fill="white"/>
<path d="M18.5837 1.61475C19.1187 1.61475 19.5524 2.04847 19.5524 2.5835C19.5524 3.11852 19.1187 3.55225 18.5837 3.55225H13.417C12.882 3.55225 12.4482 3.11852 12.4482 2.5835C12.4482 2.04847 12.882 1.61475 13.417 1.61475H18.5837Z" fill="white"/>
</svg>
