<svg width="28" height="27" viewBox="0 0 28 27" fill="none" xmlns="http://www.w3.org/2000/svg">
<path d="M1.90625 15.7501V11.2501C1.90625 9.15259 1.90467 7.49434 2.07874 6.19964C2.25608 4.8808 2.62995 3.8137 3.4718 2.97186C4.31429 2.12937 5.38493 1.75596 6.70837 1.57879C8.00836 1.4048 9.67534 1.40631 11.7841 1.40631C13.4355 1.4063 14.4799 1.39346 15.4381 1.76116C16.3961 2.12889 17.1599 2.83383 18.3813 3.93316L22.8352 7.94097C24.2468 9.21144 25.1519 10.0039 25.6312 11.0798C26.1105 12.1558 26.0938 13.3587 26.0938 15.2579V15.7501C26.0938 17.8475 26.0953 19.5058 25.9213 20.8005C25.7439 22.1193 25.37 23.1864 24.5282 24.0283C23.6864 24.8701 22.6193 25.244 21.3004 25.4213C20.0057 25.5954 18.3475 25.5938 16.25 25.5938H11.75C9.65253 25.5938 7.99429 25.5954 6.69959 25.4213C5.38074 25.244 4.31365 24.8701 3.4718 24.0283C2.62995 23.1864 2.25608 22.1193 2.07874 20.8005C1.90467 19.5058 1.90625 17.8475 1.90625 15.7501ZM3.59375 15.7501C3.59375 17.8952 3.59543 19.4191 3.75085 20.5753C3.90303 21.7071 4.18881 22.359 4.66492 22.8351C5.14103 23.3113 5.79296 23.597 6.92481 23.7492C8.08091 23.9046 9.6049 23.9063 11.75 23.9063H16.25C18.3951 23.9063 19.9191 23.9046 21.0752 23.7492C22.207 23.597 22.859 23.3113 23.3351 22.8351C23.8112 22.359 24.097 21.7071 24.2491 20.5753C24.4046 19.4191 24.4062 17.8952 24.4062 15.7501V15.2579C24.4062 13.2097 24.3891 12.4382 24.0898 11.7664C23.7906 11.0947 23.2282 10.5658 21.7058 9.19561L17.2531 5.1878C15.9371 4.00345 15.4314 3.56632 14.8328 3.3366C14.2344 3.10705 13.5629 3.09381 11.7841 3.09381C9.62779 3.09381 8.0945 3.09539 6.9325 3.25091C5.79416 3.40327 5.14036 3.68953 4.66492 4.16497C4.18881 4.64108 3.90303 5.29301 3.75085 6.42486C3.59543 7.58097 3.59375 9.10495 3.59375 11.2501V15.7501Z" fill="white"/>
<path d="M14.2813 5.625V2.8125H15.9688V5.625C15.9688 6.97468 15.9707 7.90241 16.0643 8.599C16.1547 9.27108 16.3166 9.60053 16.5455 9.82947C16.7745 10.0584 17.1039 10.2203 17.776 10.3107C18.4726 10.4043 19.4003 10.4062 20.75 10.4062H25.25V12.0938H20.75C19.4482 12.0938 18.387 12.095 17.5519 11.9828C16.6924 11.8672 15.9472 11.6174 15.3524 11.0226C14.7576 10.4278 14.5078 9.68257 14.3922 8.82312C14.28 7.988 14.2813 6.92681 14.2813 5.625Z" fill="white"/>
<path d="M10.96 15.4535C11.1238 15.0174 11.6104 14.7966 12.0466 14.9602C12.4826 15.124 12.7034 15.6106 12.5399 16.0468L10.8524 20.5468C10.6886 20.9828 10.202 21.2036 9.76581 21.0401C9.32972 20.8763 9.10894 20.3897 9.27252 19.9535L10.96 15.4535ZM12.8409 17.4036C13.1704 17.0741 13.7045 17.0741 14.034 17.4036L15.159 18.5286C15.4885 18.8581 15.4885 19.3922 15.159 19.7217L14.034 20.8467C13.7045 21.1762 13.1704 21.1762 12.8409 20.8467C12.5114 20.5172 12.5114 19.9831 12.8409 19.6536L13.3693 19.1251L12.8409 18.5967C12.5114 18.2672 12.5114 17.7331 12.8409 17.4036ZM7.77838 15.1536C8.10788 14.8241 8.64199 14.8241 8.97149 15.1536C9.301 15.4831 9.301 16.0172 8.97149 16.3467L8.44305 16.8751L8.97149 17.4036C9.301 17.7331 9.301 18.2672 8.97149 18.5967C8.64199 18.9262 8.10788 18.9262 7.77838 18.5967L6.65338 17.4717C6.32387 17.1422 6.32387 16.6081 6.65338 16.2786L7.77838 15.1536Z" fill="white"/>
</svg>
