<svg width="31" height="30" viewBox="0 0 31 30" fill="none" xmlns="http://www.w3.org/2000/svg">
<path d="M25.8125 13.0212C25.8125 11.0109 25.8124 9.5427 25.7551 8.49121C25.7265 7.96633 25.6852 7.577 25.6306 7.2937C25.6037 7.15417 25.5762 7.05374 25.5513 6.98364C25.5298 6.92324 25.5138 6.89667 25.511 6.89209C25.5091 6.88971 25.491 6.86797 25.4426 6.82861C25.3868 6.78326 25.3038 6.72443 25.1826 6.65405C24.9369 6.51137 24.5865 6.34734 24.1035 6.15112C23.1354 5.75782 21.756 5.28466 19.8652 4.63745L19.1487 4.39331C17.1308 3.70258 16.3221 3.4375 15.5 3.4375C14.6779 3.4375 13.8692 3.70258 11.8513 4.39331L11.1348 4.63745C9.24402 5.28466 7.86462 5.75782 6.89649 6.15112C6.41352 6.34734 6.06306 6.51137 5.81738 6.65405C5.69621 6.72443 5.61318 6.78326 5.55737 6.82861C5.50896 6.86797 5.49095 6.88971 5.48901 6.89209C5.48622 6.89667 5.47024 6.92324 5.44873 6.98364C5.42381 7.05374 5.39628 7.15417 5.36939 7.2937C5.31479 7.577 5.27345 7.96633 5.24487 8.49121C5.18762 9.5427 5.1875 11.0109 5.1875 13.0212V14.989C5.1875 21.4579 10.0254 24.6416 13.249 26.0498C13.713 26.2525 13.9809 26.3677 14.2793 26.4441C14.5644 26.5171 14.9125 26.5625 15.5 26.5625C16.0875 26.5625 16.4356 26.5171 16.7207 26.4441C17.0191 26.3677 17.287 26.2525 17.751 26.0498C20.9746 24.6416 25.8125 21.4579 25.8125 14.989V13.0212ZM27.6875 14.989C27.6875 22.6153 21.9271 26.2723 18.5017 27.7686C18.0645 27.9595 17.6564 28.14 17.1858 28.2605C16.7015 28.3845 16.1866 28.4375 15.5 28.4375C14.8134 28.4375 14.2985 28.3845 13.8142 28.2605C13.3436 28.14 12.9355 27.9595 12.4983 27.7686C9.07291 26.2723 3.3125 22.6153 3.3125 14.989V13.0212C3.3125 11.0347 3.3116 9.50376 3.37232 8.38867C3.40272 7.83047 3.45046 7.34378 3.52857 6.93848C3.60372 6.54867 3.72341 6.14358 3.95459 5.81421C4.18858 5.48092 4.53298 5.2323 4.87622 5.03296C5.23285 4.82585 5.6758 4.62334 6.19092 4.41406C7.21988 3.99605 8.66059 3.50302 10.5281 2.86377L11.2434 2.61841C13.1434 1.96805 14.2937 1.5625 15.5 1.5625C16.7063 1.5625 17.8566 1.96805 19.7566 2.61841L20.4719 2.86377C22.3394 3.50302 23.7801 3.99605 24.8091 4.41406C25.3242 4.62334 25.7672 4.82585 26.1238 5.03296C26.467 5.2323 26.8114 5.48092 27.0454 5.81421C27.2766 6.14358 27.3963 6.54867 27.4714 6.93848C27.5495 7.34378 27.5973 7.83047 27.6277 8.38867C27.6884 9.50376 27.6875 11.0347 27.6875 13.0212V14.989Z" fill="white"/>
<path d="M17.9256 11.8752C18.2705 11.4893 18.8639 11.456 19.2501 11.8008C19.636 12.1457 19.6693 12.7391 19.3245 13.1252L14.8604 18.1252C14.6826 18.3243 14.4279 18.4377 14.161 18.4377C13.8941 18.4377 13.6393 18.3242 13.4615 18.1252L11.6756 16.1245C11.331 15.7385 11.3644 15.1461 11.7501 14.8013C12.1363 14.4564 12.7297 14.4895 13.0745 14.8757L14.1597 16.0916L17.9256 11.8752Z" fill="white"/>
</svg>
