<svg width="30" height="29" viewBox="0 0 30 29" fill="none" xmlns="http://www.w3.org/2000/svg">
<path d="M10.1689 8.45817C10.1836 5.83001 10.3001 4.40671 11.2286 3.47824C12.2903 2.4165 13.9992 2.4165 17.4168 2.4165H18.6252C22.0429 2.4165 23.7517 2.4165 24.8134 3.47824C25.8752 4.53998 25.8752 6.24882 25.8752 9.6665V19.3332C25.8752 22.7509 25.8752 24.4597 24.8134 25.5214C23.7517 26.5832 22.0429 26.5832 18.6252 26.5832H17.4168C13.9992 26.5832 12.2903 26.5832 11.2286 25.5214C10.3001 24.593 10.1836 23.1697 10.1689 20.5415" stroke="white" stroke-width="1.5" stroke-linecap="round"/>
<path d="M10.1667 23.5625C7.3186 23.5625 5.89456 23.5625 5.00978 22.6777C4.125 21.7929 4.125 20.3689 4.125 17.5208V11.4792C4.125 8.6311 4.125 7.20706 5.00978 6.32228C5.89456 5.4375 7.3186 5.4375 10.1667 5.4375" stroke="white" stroke-width="1.5"/>
<path d="M18.625 14.5002L7.75 14.5002M7.75 14.5002L10.1667 16.9168M7.75 14.5002L10.1667 12.0835" stroke="white" stroke-width="1.5" stroke-linecap="round" stroke-linejoin="round"/>
</svg>
