<svg width="27" height="27" viewBox="0 0 27 27" fill="none" xmlns="http://www.w3.org/2000/svg">
<path d="M6.63672 9.85814L8.20055 8.29762L11.8874 11.9845L18.3362 5.53467L19.9 7.0985L11.8874 15.1089L6.63672 9.85814Z" fill="white"/>
<path d="M23.2089 2.21045H3.31559C2.7299 2.2122 2.1687 2.44564 1.75456 2.85978C1.34041 3.27393 1.10697 3.83513 1.10522 4.42081L1.10965 17.6874C1.11081 18.2721 1.3436 18.8325 1.75704 19.246C2.17048 19.6594 2.7309 19.8922 3.31559 19.8934H11.0519V22.1037L8.84592 22.1082L8.8415 24.3141H17.683L17.6874 22.1082L15.4726 22.1037V19.8934H23.2089C23.7946 19.8916 24.3558 19.6582 24.7699 19.244C25.1841 18.8299 25.4175 18.2687 25.4192 17.683V4.42081C25.4175 3.83513 25.1841 3.27393 24.7699 2.85978C24.3558 2.44564 23.7946 2.2122 23.2089 2.21045ZM23.2089 17.683H3.31559V4.42081H23.2089V17.683Z" fill="white"/>
</svg>
