<svg width="164" height="190" viewBox="0 0 164 190" fill="none" xmlns="http://www.w3.org/2000/svg">
<path d="M129.704 30.349C122.832 22.4346 118.7 12.1149 118.7 0.833313H110.088C112.305 13.1644 119.613 23.7465 129.704 30.349Z" fill="#7D7D7D"/>
<path d="M50.0168 94.1033C35.0973 94.1033 22.9617 106.303 22.9617 121.302C22.9617 131.753 28.8772 140.848 37.4896 145.395C34.2709 140.935 32.357 135.47 32.357 129.522C32.357 114.524 44.4927 102.324 59.4125 102.324C62.1962 102.324 64.8928 102.805 67.4157 103.592V70.5347C64.8056 70.1845 62.1526 69.9657 59.4125 69.9657C58.9338 69.9657 58.4988 70.0094 58.0203 70.0094V95.3714C55.454 94.5841 52.8006 94.1033 50.0168 94.1033Z" fill="#7D7D7D"/>
<path d="M154.105 44.8664V70.0094C137.402 70.0094 121.917 64.6313 109.302 55.5358V121.345C109.302 154.185 82.7262 180.946 50.0161 180.946C37.4019 180.946 25.6578 176.923 16.0449 170.145C26.8756 181.82 42.3171 189.167 59.4118 189.167C92.0777 189.167 118.698 162.449 118.698 129.566V63.7565C131.312 72.8521 146.797 78.2302 163.5 78.2302V45.8725C160.238 45.8725 157.106 45.5223 154.105 44.8664Z" fill="#7D7D7D"/>
<path d="M109.302 121.345V55.5358C121.917 64.6313 137.402 70.0094 154.105 70.0094V44.8664C144.448 42.8117 135.968 37.5642 129.704 30.349C119.613 23.7465 112.348 13.1644 110.042 0.833313H86.4667L86.4231 130.572C85.9015 145.089 73.9828 156.765 59.4118 156.765C50.3641 156.765 42.4041 152.261 37.4455 145.439C28.833 140.848 22.9175 131.797 22.9175 121.345C22.9175 106.347 35.0531 94.147 49.9726 94.147C52.7564 94.147 55.4533 94.6279 57.9761 95.4151V70.0532C25.9623 70.7529 0.125 97.1641 0.125 129.566C0.125 145.22 6.1711 159.476 16.0449 170.145C25.6578 176.923 37.4019 180.946 50.0161 180.946C82.6826 180.946 109.302 154.185 109.302 121.345Z" fill="#7D7D7D"/>
</svg>
