<svg width="32" height="32" viewBox="0 0 32 32" fill="none" xmlns="http://www.w3.org/2000/svg">
<path d="M16.0317 0H15.9589C7.14503 0 0 7.14713 0 15.9636V16.0364C0 24.8529 7.14503 32 15.9589 32H16.0317C24.8456 32 31.9906 24.8529 31.9906 16.0364V15.9636C31.9906 7.14713 24.8456 0 16.0317 0Z" fill="black"/>
<path d="M24.1056 12.7089V15.7303C23.5778 15.6787 22.8918 15.5588 22.1331 15.2807C21.1423 14.9175 20.4048 14.4208 19.9218 14.0363V20.143L19.9094 20.124C19.9173 20.245 19.9218 20.3684 19.9218 20.4928C19.9218 23.5254 17.4549 25.9941 14.4221 25.9941C11.3892 25.9941 8.92236 23.5254 8.92236 20.4928C8.92236 17.4602 11.3892 14.9904 14.4221 14.9904C14.7191 14.9904 15.0105 15.0139 15.2952 15.0599V18.0376C15.0217 17.94 14.728 17.8873 14.4221 17.8873C12.9863 17.8873 11.8174 19.0555 11.8174 20.4928C11.8174 21.9301 12.9863 23.0983 14.4221 23.0983C15.8578 23.0983 17.0268 21.929 17.0268 20.4928C17.0268 20.439 17.0256 20.3852 17.0223 20.3314V8.46436H20.0406C20.0518 8.71997 20.0619 8.97783 20.0731 9.23344C20.0932 9.73682 20.2726 10.22 20.5853 10.6158C20.9518 11.081 21.4931 11.6214 22.253 12.053C22.9647 12.4566 23.6327 12.6293 24.1056 12.7111V12.7089Z" fill="#FF004F"/>
<path d="M23.068 10.2561V13.2775C22.5402 13.2259 21.8542 13.1059 21.0955 12.8279C20.1047 12.4647 19.3672 11.968 18.8841 11.5835V17.6902L18.8718 17.6711C18.8797 17.7922 18.8841 17.9155 18.8841 18.04C18.8841 21.0726 16.4173 23.5413 13.3845 23.5413C10.3516 23.5413 7.88477 21.0726 7.88477 18.04C7.88477 15.0074 10.3516 12.5375 13.3845 12.5375C13.6815 12.5375 13.9729 12.5611 14.2575 12.607V15.5847C13.9841 15.4872 13.6904 15.4345 13.3845 15.4345C11.9487 15.4345 10.7797 16.6027 10.7797 18.04C10.7797 19.4772 11.9487 20.6454 13.3845 20.6454C14.8202 20.6454 15.9892 19.4761 15.9892 18.04C15.9892 17.9862 15.988 17.9323 15.9847 17.8785V6.00928H19.003C19.0142 6.26489 19.0243 6.52275 19.0355 6.77836C19.0556 7.28174 19.235 7.76494 19.5477 8.1607C19.9142 8.62596 20.4555 9.16634 21.2154 9.59797C21.9271 10.0004 22.5951 10.1742 23.068 10.2561Z" fill="#00F7EF"/>
<path d="M23.7282 11.5766V14.598C23.2003 14.5464 22.5144 14.4265 21.7556 14.1484C20.7648 13.7852 20.0274 13.2885 19.5443 12.904V19.0107L19.532 18.9916C19.5398 19.1127 19.5443 19.236 19.5443 19.3605C19.5443 22.3931 17.0775 24.8618 14.0446 24.8618C11.0118 24.8618 8.54492 22.3931 8.54492 19.3605C8.54492 16.3279 11.0118 13.858 14.0446 13.858C14.3416 13.858 14.633 13.8816 14.9177 13.9276V16.9052C14.6442 16.8077 14.3506 16.755 14.0446 16.755C12.6089 16.755 11.4399 17.9232 11.4399 19.3605C11.4399 20.7978 12.6089 21.966 14.0446 21.966C15.4803 21.966 16.6493 20.7966 16.6493 19.3605C16.6493 19.3067 16.6482 19.2529 16.6448 19.199V7.33203H19.6631C19.6743 7.58765 19.6844 7.8455 19.6956 8.10112C19.7158 8.6045 19.8951 9.0877 20.2078 9.48345C20.5743 9.94871 21.1157 10.4891 21.8755 10.9207C22.5872 11.3232 23.2552 11.497 23.7282 11.5788V11.5766Z" fill="white"/>
</svg>
